<?xml version="1.0" encoding="UTF-8"?>
<svg width="752pt" height="752pt" version="1.1" viewBox="0 0 752 752" xmlns="http://www.w3.org/2000/svg">
 <defs>
  <clipPath id="a">
   <path d="m139.21 217h473.58v372h-473.58z"/>
  </clipPath>
 </defs>
 <path d="m370.11 521.69-206.01-72.141c159.63-30.621 391.5-49.188 204.51-98.664-91.637-20.418-140.57-72.121 118.32-66.008-122.79 2.7734-118.32 32.754-75.328 39.469 245.82 42.879 224.5 129.29-41.488 197.34z"/>
 <g clip-path="url(#a)">
  <path transform="matrix(4.7358 0 0 4.7358 139.21 139.21)" d="m48.756 80.763-43.5-15.233c33.708-6.4659 82.667-10.386 43.183-20.834-19.35-4.3114-29.683-15.229 24.983-13.938-25.928 0.58563-24.983 6.9162-15.906 8.3341 51.908 9.0542 47.406 27.301-8.7605 41.671z" fill="none" stroke="#000" stroke-miterlimit="10"/>
 </g>
</svg>
